<?xml version="1.0" standalone="no"?>
<!DOCTYPE svg PUBLIC "-//W3C//DTD SVG 1.1//EN" "http://www.w3.org/Graphics/SVG/1.1/DTD/svg11.dtd">
<svg width="600px" height="600px" version="1.1" xmlns="http://www.w3.org/2000/svg" xmlns:xlink="http://www.w3.org/1999/xlink" xml:space="preserve" style="fill-rule:evenodd;clip-rule:evenodd;stroke-linejoin:round;stroke-miterlimit:1.41421;">
    <g>
        <g id="Layer1">
            <g>
                <path id="Faccia" d="M126.842,102.941C98.3891,138.926 81.4542,184.014 81.4542,232.966C81.4542,350.689 179.33,446.122 300.066,446.122C420.801,446.122 518.677,350.689 518.677,232.966C518.677,168.762 489.561,111.192 443.507,72.1132" style="fill:white;fill-rule:nonzero;"/>
                <path d="M300.066,465.468C299.044,465.467 298.023,465.462 297.001,465.45C294.459,465.418 291.918,465.348 289.378,465.238C281.603,464.902 273.845,464.197 266.137,463.121C256.617,461.792 247.177,459.897 237.882,457.445C228.506,454.971 219.28,451.93 210.272,448.341C197.623,443.302 185.406,437.183 173.796,430.069C161.314,422.42 149.536,413.622 138.666,403.815C131.164,397.046 124.095,389.798 117.521,382.124C110.794,374.272 104.585,365.976 98.9574,357.301C93.3069,348.593 88.2418,339.504 83.8162,330.113C79.2496,320.422 75.3647,310.411 72.2062,300.175C68.9283,289.552 66.4338,278.688 64.748,267.699C63.0996,256.954 62.2249,246.091 62.119,235.221C62.0035,223.358 62.8014,211.486 64.5224,199.747C66.3297,187.42 69.1543,175.243 72.9601,163.379C78.2022,147.038 85.3049,131.303 94.0606,116.544C97.5547,110.654 101.311,104.92 105.312,99.362C107.252,96.6663 109.253,94.0152 111.303,91.402L142.033,114.921C141.725,115.311 138.731,119.2 137.576,120.78C135.17,124.069 132.867,127.435 130.673,130.87C124.69,140.235 119.518,150.118 115.251,160.38C111.064,170.447 107.751,180.877 105.367,191.517C103.039,201.906 101.599,212.492 101.053,223.125C100.202,239.674 101.498,256.332 104.954,272.54C106.616,280.336 108.776,288.026 111.413,295.549C114.153,303.365 117.409,310.999 121.147,318.389C128.141,332.218 136.823,345.183 146.904,356.951C156.51,368.163 167.381,378.284 179.232,387.089C191.714,396.362 205.279,404.169 219.563,410.313C232.108,415.709 245.202,419.819 258.577,422.573C272.217,425.381 286.141,426.776 300.066,426.776C307.735,426.776 315.403,426.355 323.025,425.505C331.088,424.606 339.097,423.229 346.995,421.375C359.656,418.403 372.028,414.206 383.88,408.853C396.591,403.112 408.7,396.044 419.945,387.793C429.318,380.916 438.089,373.219 446.117,364.81C454.649,355.874 462.341,346.134 469.034,335.748C474.248,327.659 478.856,319.18 482.795,310.399C486.522,302.093 489.65,293.518 492.14,284.761C494.171,277.621 495.778,270.361 496.951,263.031C498.048,256.171 498.766,249.251 499.104,242.311C499.649,231.119 499.217,219.877 497.794,208.762C496.68,200.054 494.957,191.425 492.638,182.958C489.646,172.031 485.664,161.378 480.765,151.163C476.045,141.319 470.477,131.885 464.157,122.985C457.9,114.173 450.908,105.885 443.286,98.2237C440.714,95.6377 432.447,88.1047 430.966,86.8441L456.048,57.3823C457.799,58.8733 468.385,68.5534 471.799,72.03C481.403,81.8117 490.154,92.4305 497.906,103.738C505.179,114.347 511.57,125.563 516.975,137.236C522.11,148.327 526.353,159.831 529.642,171.603C532.596,182.175 534.78,192.962 536.174,203.85C537.441,213.752 538.055,223.736 538.022,233.718C537.984,245.578 537.031,257.434 535.157,269.145C533.629,278.694 531.49,288.145 528.756,297.421C525.925,307.025 522.458,316.441 518.387,325.589C513.11,337.45 506.82,348.857 499.623,359.66C492.588,370.219 484.688,380.198 476.038,389.478C465.282,401.017 453.367,411.473 440.539,420.652C428.555,429.228 415.776,436.69 402.419,442.917C392.807,447.398 382.898,451.239 372.778,454.409C362.015,457.78 351.015,460.392 339.886,462.225C331.495,463.607 323.032,464.546 314.542,465.045C311.759,465.208 308.973,465.324 306.186,465.393C304.657,465.431 303.128,465.452 301.599,465.464C301.088,465.466 300.577,465.468 300.066,465.468Z" style="fill:rgb(73,232,201);fill-rule:nonzero;"/>
                <path id="Occhio sinistro" d="M225.759,247.566C225.759,261.989 215.99,273.681 203.941,273.681C191.891,273.681 182.123,261.989 182.123,247.566C182.123,233.143 191.891,221.451 203.941,221.451C215.99,221.451 225.759,233.143 225.759,247.566" style="fill:rgb(68,68,68);fill-rule:nonzero;"/>
                <path id="Occhio destro" d="M409.121,247.566C409.121,261.989 399.352,273.681 387.303,273.681C375.253,273.681 365.485,261.989 365.485,247.566C365.485,233.143 375.253,221.451 387.303,221.451C399.352,221.451 409.121,233.143 409.121,247.566" style="fill:rgb(68,68,68);fill-rule:nonzero;"/>
                <path id="Bocca" d="M327.15,359.065C327.15,377.228 315.716,391.953 301.613,391.953C287.51,391.953 276.076,377.228 276.076,359.065C276.076,340.901 287.51,326.176 301.613,326.176C315.716,326.176 327.15,340.901 327.15,359.065" style="fill:rgb(68,68,68);fill-rule:nonzero;"/>
                <path id="Cravatta inferiore" d="M301.64,600L298.484,600C297.795,599.512 297.141,598.96 296.412,598.544C287.287,593.345 278.17,588.134 269.007,583.003C266.895,581.821 265.877,580.343 266.497,577.886C272.491,554.143 278.475,530.396 284.441,506.646C284.988,504.467 286.257,503.365 288.532,503.371C296.241,503.388 303.951,503.385 311.661,503.374C313.925,503.371 315.194,504.466 315.742,506.658C321.674,530.327 327.626,553.99 333.596,577.65C334.195,580.019 333.593,581.68 331.357,582.876C327.731,584.816 324.18,586.896 320.62,588.956C314.284,592.622 307.966,596.317 301.64,600" style="fill:rgb(66,66,66);fill-rule:nonzero;"/>
                <path id="Cravatta superiore" d="M313.741,478.999C315.621,480.148 316.43,481.762 316.325,484.019C316.183,487.071 316.319,490.134 316.281,493.192C316.242,496.426 315.018,497.733 311.883,497.748C303.932,497.788 295.981,497.788 288.03,497.748C284.984,497.733 283.764,496.459 283.727,493.415C283.691,490.445 283.835,487.468 283.681,484.505C283.564,482.264 284.093,480.425 285.857,478.999L313.741,478.999Z" style="fill:rgb(66,66,66);fill-rule:nonzero;"/>
                <path d="M255.791,199.343C253.723,199.343 252.146,199.343 250.569,199.343C195.598,199.349 140.628,199.402 85.6574,199.274C81.1567,199.264 80.8348,201.427 80.8448,204.889C80.906,226.78 80.8533,248.671 80.8417,270.563C80.8371,278.797 80.841,287.032 80.841,295.23L255.791,295.23L255.791,199.343ZM518.808,199.822L335.568,199.822L335.568,295.333L518.808,295.333L518.808,199.822ZM544.873,173.479C544.996,173.906 545.394,193.447 545.663,193.831L545.663,301.309C545.025,302.728 544.355,304.132 543.753,305.566C539.712,315.2 529.591,322.229 519.996,322.224C458.448,322.189 396.899,322.175 335.351,322.185C321.087,322.187 308.93,310.499 308.728,296.254C308.581,285.865 308.689,275.472 308.685,265.081C308.683,260.821 308.684,256.561 308.684,252.257L282.614,252.257C282.614,255.056 282.618,257.572 282.614,260.088C282.591,272.717 282.846,285.354 282.467,297.972C282.053,311.779 275.214,322.597 257.763,322.41C200.698,321.796 143.622,322.118 86.5512,322.261C80.5879,322.277 75.2476,321.04 70.0721,318.255C62.5766,314.221 57.5381,308.114 54.3367,300.35L54.3367,172.72" style="fill:rgb(66,66,66);fill-rule:nonzero;"/>
                <g>
                    <path d="M291.917,151.804L292.889,153.014" style="fill:rgb(73,232,200);"/>
                </g>
                <g>
                    <path d="M111.634,91.7008C156.904,34.4478 224.891,4.26326e-14 304.768,4.26326e-14C366.931,4.26326e-14 414.452,22.3069 457.93,59.1992L443.614,96.7308L280.332,117.238L312.834,193.848L141.814,114.916L111.634,91.7008Z" style="fill:rgb(73,232,200);"/>
                </g>
            </g>
        </g>
    </g>
</svg>
